<mxfile host="app.diagrams.net" modified="2023-08-16T09:23:54.340Z" agent="Mozilla/5.0 (Windows NT 10.0; Win64; x64) AppleWebKit/537.36 (KHTML, like Gecko) Chrome/115.0.0.0 Safari/537.36 Edg/115.0.1901.203" etag="xyo76ToFXSQ7FvvBe-bQ" version="21.6.8" type="device">
  <diagram name="Page-1" id="e7e014a7-5840-1c2e-5031-d8a46d1fe8dd">
    <mxGraphModel dx="679" dy="490" grid="1" gridSize="10" guides="1" tooltips="1" connect="1" arrows="1" fold="1" page="1" pageScale="1" pageWidth="1169" pageHeight="826" background="none" math="0" shadow="0">
      <root>
        <mxCell id="0" />
        <mxCell id="1" parent="0" />
        <mxCell id="2kZPf4MrJidwOVjCCBSO-59" style="edgeStyle=none;shape=connector;rounded=0;orthogonalLoop=1;jettySize=auto;html=1;exitX=0.5;exitY=0.5;exitDx=0;exitDy=0;exitPerimeter=0;labelBackgroundColor=default;strokeColor=default;fontFamily=Helvetica;fontSize=11;fontColor=default;endArrow=none;endFill=0;" edge="1" parent="1" source="2kZPf4MrJidwOVjCCBSO-55" target="2kZPf4MrJidwOVjCCBSO-56">
          <mxGeometry relative="1" as="geometry" />
        </mxCell>
        <mxCell id="2kZPf4MrJidwOVjCCBSO-61" style="edgeStyle=none;shape=connector;rounded=0;orthogonalLoop=1;jettySize=auto;html=1;exitX=0.5;exitY=0.5;exitDx=0;exitDy=0;exitPerimeter=0;labelBackgroundColor=default;strokeColor=default;fontFamily=Helvetica;fontSize=11;fontColor=default;endArrow=none;endFill=0;" edge="1" parent="1" source="2kZPf4MrJidwOVjCCBSO-55" target="2kZPf4MrJidwOVjCCBSO-60">
          <mxGeometry relative="1" as="geometry" />
        </mxCell>
        <mxCell id="2kZPf4MrJidwOVjCCBSO-63" style="edgeStyle=none;shape=connector;rounded=0;orthogonalLoop=1;jettySize=auto;html=1;exitX=0.5;exitY=0.5;exitDx=0;exitDy=0;exitPerimeter=0;labelBackgroundColor=default;strokeColor=default;fontFamily=Helvetica;fontSize=11;fontColor=default;endArrow=none;endFill=0;" edge="1" parent="1" source="2kZPf4MrJidwOVjCCBSO-55" target="2kZPf4MrJidwOVjCCBSO-62">
          <mxGeometry relative="1" as="geometry" />
        </mxCell>
        <mxCell id="2kZPf4MrJidwOVjCCBSO-65" style="edgeStyle=none;shape=connector;rounded=0;orthogonalLoop=1;jettySize=auto;html=1;exitX=0.5;exitY=0.5;exitDx=0;exitDy=0;exitPerimeter=0;labelBackgroundColor=default;strokeColor=default;fontFamily=Helvetica;fontSize=11;fontColor=default;endArrow=none;endFill=0;" edge="1" parent="1" source="2kZPf4MrJidwOVjCCBSO-55" target="2kZPf4MrJidwOVjCCBSO-64">
          <mxGeometry relative="1" as="geometry" />
        </mxCell>
        <mxCell id="2kZPf4MrJidwOVjCCBSO-55" value="管理员" style="shape=umlActor;html=1;verticalLabelPosition=bottom;verticalAlign=top;align=center;labelBackgroundColor=default;fontFamily=Helvetica;fontSize=11;fontColor=default;fillColor=none;gradientColor=none;" vertex="1" parent="1">
          <mxGeometry x="250" y="285" width="30" height="60" as="geometry" />
        </mxCell>
        <mxCell id="2kZPf4MrJidwOVjCCBSO-56" value="编辑订货单" style="ellipse;whiteSpace=wrap;html=1;labelBackgroundColor=default;fontFamily=Helvetica;fontSize=11;fontColor=default;fillColor=none;gradientColor=none;" vertex="1" parent="1">
          <mxGeometry x="400" y="190" width="140" height="70" as="geometry" />
        </mxCell>
        <mxCell id="2kZPf4MrJidwOVjCCBSO-60" value="商品验收" style="ellipse;whiteSpace=wrap;html=1;labelBackgroundColor=default;fontFamily=Helvetica;fontSize=11;fontColor=default;fillColor=none;gradientColor=none;" vertex="1" parent="1">
          <mxGeometry x="400" y="280" width="140" height="70" as="geometry" />
        </mxCell>
        <mxCell id="2kZPf4MrJidwOVjCCBSO-62" value="入库" style="ellipse;whiteSpace=wrap;html=1;labelBackgroundColor=default;fontFamily=Helvetica;fontSize=11;fontColor=default;fillColor=none;gradientColor=none;" vertex="1" parent="1">
          <mxGeometry x="400" y="370" width="140" height="70" as="geometry" />
        </mxCell>
        <mxCell id="2kZPf4MrJidwOVjCCBSO-64" value="查看进货报告" style="ellipse;whiteSpace=wrap;html=1;labelBackgroundColor=default;fontFamily=Helvetica;fontSize=11;fontColor=default;fillColor=none;gradientColor=none;" vertex="1" parent="1">
          <mxGeometry x="400" y="460" width="140" height="70" as="geometry" />
        </mxCell>
      </root>
    </mxGraphModel>
  </diagram>
</mxfile>
